# xmcd CD database file
#
# Track frame offsets:
#	150
#	25759
#	47869
#	86191
#	125947
#	148811
#	166116
#	186331
#	204460
#
# Disc length: 3061 seconds
#
# Revision: 0
# Processed by: cddbd v1.5.2PL0 Copyright (c) Steve Scherf et al.
# Submitted via: CDex 1.70beta2
#
DISCID=850bf309
DTITLE=Andreas Loven - District Six
DYEAR=2016
DGENRE=Jazz
TTITLE0=Good news
TTITLE1=In tune
TTITLE2=Roots
TTITLE3=African piano
TTITLE4=Shine
TTITLE5=Inside District Six
TTITLE6=Please forgive me
TTITLE7=The Boiler
TTITLE8=Departing Tokyo
EXTD=YEAR: 2016
EXTT0=
EXTT1=
EXTT2=
EXTT3=
EXTT4=
EXTT5=
EXTT6=
EXTT7=
EXTT8=
PLAYORDER=
